<?xml version="1.0" standalone="no"?>
<!DOCTYPE svg PUBLIC "-//W3C//DTD SVG 20010904//EN"
 "http://www.w3.org/TR/2001/REC-SVG-20010904/DTD/svg10.dtd">
<svg version="1.0" xmlns="http://www.w3.org/2000/svg"
 width="256.000000pt" height="256.000000pt" viewBox="0 0 256.000000 256.000000"
 preserveAspectRatio="xMidYMid meet">
<metadata>
Created by potrace 1.14, written by Peter Selinger 2001-2017
</metadata>
<g transform="translate(0.000000,256.000000) scale(0.100000,-0.100000)"
fill="#000000" stroke="none">
<path d="M1498 2105 c-2 -3 -22 -7 -44 -11 -49 -8 -58 -13 -45 -28 8 -9 7 -13
-4 -13 -8 0 -12 4 -9 8 8 14 -10 17 -36 6 -14 -5 -34 -12 -44 -14 -11 -2 -27
-10 -36 -18 -9 -8 -22 -15 -28 -15 -6 0 -15 -6 -19 -12 -4 -7 -17 -18 -28 -25
-11 -6 -19 -16 -17 -23 1 -6 -2 -9 -7 -6 -13 8 -63 -46 -57 -61 3 -7 0 -10 -7
-7 -16 6 -80 -93 -73 -112 3 -7 0 -13 -6 -11 -7 1 -13 -2 -13 -8 -1 -5 -7 -23
-13 -38 -7 -15 -14 -42 -18 -60 -7 -41 -11 -44 -59 -51 -80 -13 -96 -17 -138
-33 -83 -33 -133 -68 -204 -139 -321 -323 -159 -864 290 -969 118 -27 287 -4
393 55 143 80 248 213 288 364 15 59 30 80 53 71 7 -2 15 0 18 6 4 5 10 7 15
4 12 -7 123 25 131 37 3 5 9 9 13 9 23 -3 28 1 24 24 -6 30 0 33 10 5 8 -20 8
-20 29 -1 11 11 23 18 25 16 2 -2 28 18 57 45 30 28 51 50 48 50 -4 0 9 16 29
35 19 19 32 40 29 45 -3 6 -2 10 4 10 9 0 27 40 22 49 -2 2 2 7 9 11 6 4 12
13 13 21 2 8 5 19 9 24 3 6 9 28 12 50 4 22 9 48 12 58 3 10 0 25 -7 33 -9 12
-9 13 2 9 11 -4 13 7 11 60 -2 36 -7 65 -10 65 -4 0 -8 19 -9 41 0 23 -6 45
-13 49 -6 4 -10 11 -9 16 4 21 -2 26 -18 13 -16 -13 -17 -12 -5 3 11 13 10 23
-3 53 -13 34 -17 36 -33 24 -15 -13 -16 -12 -3 4 14 18 13 21 -34 75 -49 57
-77 82 -86 76 -5 -3 -8 0 -7 8 2 8 -4 12 -16 10 -10 -2 -15 1 -12 6 3 6 -15
20 -41 33 -27 12 -50 25 -53 29 -3 3 -12 5 -20 5 -8 -1 -20 3 -27 8 -7 5 -28
13 -48 17 -28 6 -37 4 -46 -9 -10 -15 -10 -15 -5 1 7 25 -5 30 -26 11 -13 -12
-18 -13 -16 -4 2 9 -8 14 -27 16 -37 2 -48 -3 -38 -19 4 -7 1 -4 -8 6 -9 9
-18 15 -21 13z m-22 -43 c-17 -16 -18 -16 -5 5 7 12 15 20 18 17 3 -2 -3 -12
-13 -22z m94 3 c14 -19 14 -19 -2 -6 -10 7 -18 18 -18 24 0 6 1 8 3 6 1 -2 9
-13 17 -24z m154 -11 c3 -8 2 -12 -4 -9 -6 3 -10 10 -10 16 0 14 7 11 14 -7z
m-160 -23 c-2 -3 -12 3 -22 13 -16 17 -16 18 5 5 12 -7 20 -15 17 -18z m103 2
c0 -10 -4 -10 -16 -1 -9 7 -18 13 -20 15 -2 1 5 1 16 0 11 0 20 -7 20 -14z
m-176 -10 c13 -16 12 -17 -3 -4 -10 7 -18 15 -18 17 0 8 8 3 21 -13z m239 -7
c-7 -7 -13 -7 -20 0 -6 6 -3 10 10 10 13 0 16 -4 10 -10z m-443 -9 c0 -7 -11
-13 -23 -13 -12 0 -20 4 -18 8 3 5 9 6 14 3 5 -3 11 -1 15 5 8 13 12 13 12 -3z
m55 1 c-14 -14 -44 -20 -36 -7 3 5 9 7 14 4 5 -3 11 -1 15 5 3 5 9 10 13 10 3
0 1 -5 -6 -12z m98 -2 c0 -2 -8 -10 -17 -17 -16 -13 -17 -12 -4 4 13 16 21 21
21 13z m215 -5 c-9 -8 -36 -10 -30 -2 2 4 11 8 20 8 8 0 13 -3 10 -6z m126 -8
c13 -16 12 -17 -3 -4 -15 11 -21 11 -35 0 -16 -13 -17 -12 -4 4 7 9 17 17 21
17 4 0 14 -8 21 -17z m-321 -7 c0 -2 -8 -10 -17 -17 -16 -13 -17 -12 -4 4 13
16 21 21 21 13z m78 -15 c16 12 16 12 0 -6 -18 -19 -18 -19 -35 0 -17 18 -17
18 0 6 14 -11 20 -11 35 0z m-139 -15 c9 -11 9 -16 -1 -22 -7 -4 -10 -4 -6 1
4 4 3 14 -3 22 -6 7 -9 13 -6 13 2 0 10 -6 16 -14z m91 -11 c14 -19 14 -19 -2
-6 -10 7 -18 18 -18 24 0 6 1 8 3 6 1 -2 9 -13 17 -24z m91 8 c13 -16 12 -17
-3 -4 -10 7 -18 15 -18 17 0 8 8 3 21 -13z m147 -4 c9 -12 9 -16 -1 -16 -7 0
-14 9 -14 20 -1 11 -1 18 0 16 2 -2 8 -11 15 -20z m83 8 c-6 -8 -7 -18 -3 -22
4 -5 1 -5 -6 -1 -10 6 -10 11 -1 22 6 8 14 14 16 14 3 0 0 -6 -6 -13z m-569
-14 c-1 -4 7 -17 16 -28 17 -20 17 -20 -4 -2 -11 9 -21 24 -21 32 0 8 2 13 5
11 2 -2 4 -8 4 -13z m42 -9 c3 -8 2 -12 -4 -9 -6 3 -10 10 -10 16 0 14 7 11
14 -7z m490 8 c3 -5 -1 -9 -9 -9 -8 0 -12 4 -9 9 3 4 7 8 9 8 2 0 6 -4 9 -8z
m-604 -6 c0 -2 -8 -10 -17 -17 -16 -13 -17 -12 -4 4 13 16 21 21 21 13z m195
-15 c3 -5 2 -12 -3 -15 -5 -3 -9 1 -9 9 0 17 3 19 12 6z m580 0 c-8 -7 -65 -9
-70 -1 -2 3 14 6 36 6 21 0 36 -2 34 -5z m-765 -15 c0 -2 -8 -10 -17 -17 -16
-13 -17 -12 -4 4 13 16 21 21 21 13z m148 -15 c-7 -9 -13 -18 -15 -20 -1 -2
-1 5 0 16 0 11 7 20 14 20 10 0 10 -4 1 -16z m160 0 c-7 -9 -13 -18 -15 -20
-1 -2 -1 5 0 16 0 11 7 20 14 20 10 0 10 -4 1 -16z m160 0 c-7 -9 -13 -18 -15
-20 -1 -2 -1 5 0 16 0 11 7 20 14 20 10 0 10 -4 1 -16z m160 0 c-7 -9 -13 -18
-15 -20 -1 -2 -1 5 0 16 0 11 7 20 14 20 10 0 10 -4 1 -16z m-422 -11 c0 -12
-4 -16 -9 -11 -5 5 -6 14 -3 20 10 15 12 14 12 -9z m160 0 c0 -12 -4 -16 -9
-11 -5 5 -6 14 -3 20 10 15 12 14 12 -9z m204 16 c0 -2 -8 -10 -17 -17 -16
-13 -17 -12 -4 4 13 16 21 21 21 13z m160 0 c0 -2 -8 -10 -17 -17 -16 -13 -17
-12 -4 4 13 16 21 21 21 13z m27 -14 c-10 -10 -14 -22 -10 -25 3 -4 1 -7 -5
-7 -7 0 -12 3 -12 7 0 8 31 43 38 43 3 0 -2 -8 -11 -18z m-688 5 c-2 -2 -11
-8 -20 -15 -12 -9 -16 -9 -16 1 0 7 9 14 20 14 11 1 18 1 16 0z m452 -14 c13
-16 12 -17 -3 -5 -9 8 -23 10 -29 6 -8 -4 -9 -3 -5 4 10 17 21 15 37 -5z m160
0 c13 -16 12 -17 -3 -4 -15 11 -21 11 -35 0 -16 -13 -17 -12 -4 4 7 9 17 17
21 17 4 0 14 -8 21 -17z m106 -1 c0 -10 -6 -19 -13 -19 -9 0 -9 5 -1 19 7 10
13 18 14 18 1 0 1 -8 0 -18z m-837 -6 c0 -2 -7 -7 -16 -10 -8 -3 -12 -2 -9 4
6 10 25 14 25 6z m31 -13 c13 -16 12 -17 -3 -4 -10 7 -18 15 -18 17 0 8 8 3
21 -13z m295 5 c3 -4 -1 -5 -10 -4 -8 1 -18 5 -22 8 -3 4 1 5 10 4 8 -1 18 -5
22 -8z m160 0 c3 -4 -1 -5 -10 -4 -8 1 -18 5 -22 8 -3 4 1 5 10 4 8 -1 18 -5
22 -8z m158 4 c3 -5 -1 -9 -9 -9 -8 0 -15 4 -15 9 0 4 4 8 9 8 6 0 12 -4 15
-8z m-531 -17 c-3 -9 -8 -14 -10 -11 -3 3 -2 9 2 15 9 16 15 13 8 -4z m-102
-12 c13 -16 12 -17 -3 -4 -10 7 -18 15 -18 17 0 8 8 3 21 -13z m240 -6 c-10
-9 -11 -8 -5 6 3 10 9 15 12 12 3 -3 0 -11 -7 -18z m160 0 c-10 -9 -11 -8 -5
6 3 10 9 15 12 12 3 -3 0 -11 -7 -18z m40 6 c13 -16 12 -17 -3 -4 -10 7 -18
15 -18 17 0 8 8 3 21 -13z m160 0 c13 -16 12 -17 -3 -4 -10 7 -18 15 -18 17 0
8 8 3 21 -13z m160 0 c13 -16 12 -17 -3 -4 -10 7 -18 15 -18 17 0 8 8 3 21
-13z m-691 -15 c0 -4 -4 -8 -9 -8 -6 0 -12 4 -15 8 -3 5 1 9 9 9 8 0 15 -4 15
-9z m450 8 c0 -2 -8 -10 -17 -17 -16 -13 -17 -12 -4 4 13 16 21 21 21 13z
m160 0 c0 -2 -8 -10 -17 -17 -16 -13 -17 -12 -4 4 13 16 21 21 21 13z m185
-14 c-3 -3 -11 0 -18 7 -9 10 -8 11 6 5 10 -3 15 -9 12 -12z m-722 -6 c3 3 4
-2 2 -13 -1 -10 5 -27 14 -38 14 -17 14 -18 0 -7 -9 6 -18 9 -22 6 -3 -3 -4 2
-2 13 1 10 -5 27 -14 38 -14 17 -14 18 0 7 9 -6 18 -9 22 -6z m-148 -6 c-3 -5
-12 -10 -18 -10 -7 0 -6 4 3 10 19 12 23 12 15 0z m32 -8 c0 -10 -6 -19 -13
-19 -9 0 -9 5 -1 19 7 10 13 18 14 18 1 0 1 -8 0 -18z m242 15 c-2 -2 -11 -8
-20 -15 -12 -9 -16 -9 -16 1 0 7 9 14 20 14 11 1 18 1 16 0z m160 0 c-2 -2
-11 -8 -20 -15 -12 -9 -16 -9 -16 1 0 7 9 14 20 14 11 1 18 1 16 0z m160 0
c-2 -2 -11 -8 -20 -15 -12 -9 -16 -9 -16 1 0 7 9 14 20 14 11 1 18 1 16 0z
m160 0 c-2 -2 -11 -8 -20 -15 -12 -9 -16 -9 -16 1 0 7 9 14 20 14 11 1 18 1
16 0z m-442 -34 c0 -9 -4 -10 -14 -2 -7 6 -13 12 -13 14 0 1 6 2 13 2 8 0 14
-6 14 -14z m43 3 c-7 -7 -13 -7 -20 0 -6 6 -3 10 10 10 13 0 16 -4 10 -10z
m115 6 c-3 -3 3 -15 12 -26 14 -15 14 -18 2 -8 -9 6 -20 8 -25 4 -5 -4 -6 -3
-2 2 4 5 3 14 -2 21 -7 8 -5 12 5 12 8 0 13 -3 10 -5z m36 -9 c13 -16 12 -17
-3 -4 -10 7 -18 15 -18 17 0 8 8 3 21 -13z m84 -3 c-20 -22 -35 -26 -35 -9 0
5 4 8 9 5 5 -3 14 1 21 9 7 8 15 15 18 15 3 0 -3 -9 -13 -20z m42 5 c0 -8 -4
-12 -9 -9 -5 3 -6 10 -3 15 9 13 12 11 12 -6z m55 -10 c2 3 5 -2 5 -10 0 -19
1 -20 -28 12 -17 20 -18 23 -3 10 11 -9 23 -15 26 -12z m78 21 c0 -2 -8 -10
-17 -17 -16 -13 -17 -12 -4 4 13 16 21 21 21 13z m-785 -26 c10 -11 16 -20 13
-20 -3 0 -13 9 -23 20 -10 11 -16 20 -13 20 3 0 13 -9 23 -20z m825 5 c-7 -8
-17 -15 -23 -15 -6 0 -2 7 9 15 25 19 30 19 14 0z m51 -2 c13 -16 12 -17 -3
-4 -17 13 -22 21 -14 21 2 0 10 -8 17 -17z m35 2 c-1 -8 -5 -17 -8 -21 -5 -4
-4 16 1 34 3 9 9 -1 7 -13z m-941 -13 c-3 -3 -11 0 -18 7 -9 10 -8 11 6 5 10
-3 15 -9 12 -12z m299 2 c3 -8 2 -12 -4 -9 -6 3 -10 10 -10 16 0 14 7 11 14
-7z m-217 -27 c1 -11 1 -18 0 -16 -2 2 -8 11 -15 20 -9 12 -9 16 1 16 7 0 14
-9 14 -20z m514 6 c13 -16 12 -17 -3 -4 -17 13 -22 21 -14 21 2 0 10 -8 17
-17z m-417 -23 c-6 -6 -10 -3 -10 10 0 13 4 16 10 10 7 -7 7 -13 0 -20z m320
0 c-6 -6 -10 -3 -10 10 0 13 4 16 10 10 7 -7 7 -13 0 -20z m339 17 c4 3 7 1 7
-5 0 -17 -16 -15 -31 6 -12 15 -12 16 2 5 9 -7 19 -10 22 -6z m-596 -15 c0
-10 -6 -19 -13 -19 -9 0 -9 5 -1 19 7 10 13 18 14 18 1 0 1 -8 0 -18z m162 15
c-2 -2 -11 -8 -20 -15 -12 -9 -16 -9 -16 1 0 7 9 14 20 14 11 1 18 1 16 0z
m158 -15 c0 -10 -6 -19 -13 -19 -9 0 -9 5 -1 19 7 10 13 18 14 18 1 0 1 -8 0
-18z m162 15 c-2 -1 -13 -9 -24 -17 -19 -14 -19 -14 -6 3 7 9 18 17 24 17 6 0
8 -1 6 -3z m71 -1 c0 -2 -8 -10 -17 -17 -16 -13 -17 -12 -4 4 13 16 21 21 21
13z m161 -13 c12 -16 12 -17 -2 -6 -9 7 -20 9 -24 5 -5 -4 -5 -1 -1 6 9 16 11
15 27 -5z m-978 -26 c4 3 7 4 7 0 0 -17 -20 -14 -36 6 -19 22 -19 22 2 4 11
-9 24 -14 27 -10z m152 14 c-9 -8 -36 -10 -30 -2 2 4 11 8 20 8 8 0 13 -3 10
-6z m155 5 c0 -2 -7 -7 -16 -10 -8 -3 -12 -2 -9 4 6 10 25 14 25 6z m351 -38
c-11 -11 -13 -10 -7 0 4 7 2 21 -5 30 -12 15 -11 15 6 0 16 -15 17 -20 6 -30z
m89 27 c-10 -12 -10 -18 1 -32 12 -17 12 -17 -6 -1 -15 14 -16 20 -5 32 7 9
15 16 17 16 3 0 0 -7 -7 -15z m-672 -12 c-9 -10 -14 -26 -13 -35 2 -10 -2 -16
-8 -15 -7 1 -11 -4 -9 -11 1 -8 -2 -11 -8 -7 -8 5 -7 12 3 23 8 10 13 25 12
35 -2 9 1 15 5 12 5 -3 11 -1 15 5 3 5 9 10 12 10 3 0 -1 -8 -9 -17z m468 2
c-1 -8 -5 -17 -8 -21 -5 -4 -4 16 1 34 3 9 9 -1 7 -13z m340 -5 c0 -12 -4 -16
-9 -11 -5 5 -6 14 -3 20 10 15 12 14 12 -9z m97 7 c4 3 7 1 7 -5 0 -17 -16
-15 -31 6 -12 15 -12 16 2 5 9 -7 19 -10 22 -6z m-1018 -6 c3 -5 2 -12 -3 -15
-5 -3 -9 1 -9 9 0 17 3 19 12 6z m235 3 c0 -8 -19 -13 -24 -6 -3 5 1 9 9 9 8
0 15 -2 15 -3z m24 -3 c3 -5 -2 -15 -12 -22 -15 -12 -16 -12 -5 2 7 9 10 19 6
22 -3 4 -4 7 0 7 3 0 8 -4 11 -9z m83 2 c-4 -3 -1 -13 6 -22 11 -14 10 -14 -5
-2 -16 12 -16 31 -1 31 4 0 3 -3 0 -7z m93 1 c0 -8 -19 -13 -24 -6 -3 5 1 9 9
9 8 0 15 -2 15 -3z m30 -19 c14 -19 14 -19 -2 -6 -10 7 -18 18 -18 24 0 6 1 8
3 6 1 -2 9 -13 17 -24z m516 13 c4 -7 4 -10 -1 -6 -4 4 -15 2 -24 -5 -14 -11
-14 -10 -2 6 16 20 18 21 27 5z m-918 -27 c-7 -9 -13 -18 -15 -20 -1 -2 -1 5
0 16 0 11 7 20 14 20 10 0 10 -4 1 -16z m86 11 c2 -4 -4 -8 -14 -8 -10 0 -16
4 -14 8 3 4 9 8 14 8 5 0 11 -4 14 -8z m361 -2 c-3 -5 -12 -10 -18 -10 -7 0
-6 4 3 10 19 12 23 12 15 0z m33 -9 c-7 -9 -13 -18 -15 -20 -1 -2 -1 5 0 16 0
11 7 20 14 20 10 0 10 -4 1 -16z m320 -1 c-7 -10 -14 -17 -17 -15 -4 4 18 35
25 35 2 0 -1 -9 -8 -20z m-639 -17 c2 -1 -5 -1 -16 0 -11 0 -20 7 -20 14 0 10
4 10 16 1 9 -7 18 -13 20 -15z m178 12 c0 -8 -3 -13 -5 -10 -3 3 -12 -1 -21
-7 -10 -8 -9 -4 3 10 23 26 23 26 23 7z m320 2 c0 -7 -9 -14 -20 -14 -19 -2
-19 -2 -1 12 11 8 19 15 20 15 0 0 1 -6 1 -13z m-703 -13 c3 -8 2 -12 -4 -9
-6 3 -10 10 -10 16 0 14 7 11 14 -7z m577 -1 c13 -17 13 -17 -6 -3 -11 8 -22
16 -24 17 -2 2 0 3 6 3 6 0 17 -8 24 -17z m308 14 c-2 -1 -13 -9 -24 -17 -19
-14 -19 -14 -6 3 7 9 18 17 24 17 6 0 8 -1 6 -3z m-398 -24 c13 -16 12 -17 -3
-4 -17 13 -22 21 -14 21 2 0 10 -8 17 -17z m279 13 c0 -2 -8 -10 -17 -17 -16
-13 -17 -12 -4 4 13 16 21 21 21 13z m-582 -41 c-3 -3 -9 2 -12 12 -6 14 -5
15 5 6 7 -7 10 -15 7 -18z m198 5 c0 -12 -4 -16 -9 -11 -5 5 -6 14 -3 20 10
15 12 14 12 -9z m162 -5 c-3 -3 -9 2 -12 12 -6 14 -5 15 5 6 7 -7 10 -15 7
-18z m-252 3 c3 -4 -1 -5 -10 -4 -8 1 -18 5 -22 8 -3 4 1 5 10 4 8 -1 18 -5
22 -8z m185 -5 c12 -16 12 -17 -2 -6 -9 7 -19 10 -22 6 -4 -3 -7 -1 -7 5 0 17
16 15 31 -5z m140 0 c13 -16 12 -17 -3 -4 -10 7 -18 15 -18 17 0 8 8 3 21 -13z
m169 5 c0 -6 -3 -8 -7 -5 -3 4 -16 -1 -27 -10 -21 -18 -21 -18 -2 5 21 24 36
29 36 10z m-260 -2 c0 -2 -8 -10 -17 -17 -16 -13 -17 -12 -4 4 13 16 21 21 21
13z m321 -13 c13 -16 12 -17 -3 -4 -10 7 -18 15 -18 17 0 8 8 3 21 -13z m-597
-1 c2 -4 -4 -8 -14 -8 -10 0 -16 4 -14 8 3 4 9 8 14 8 5 0 11 -4 14 -8z m347
-9 c13 -16 12 -17 -3 -4 -10 7 -18 15 -18 17 0 8 8 3 21 -13z m404 9 c-3 -3 0
-11 6 -19 17 -20 5 -16 -14 5 -15 16 -15 19 -2 19 8 0 13 -3 10 -5z m-698 -15
c0 -7 -9 -14 -20 -14 -19 -2 -19 -2 -1 12 11 8 19 15 20 15 0 0 1 -6 1 -13z
m164 -4 c13 -16 12 -17 -3 -4 -10 7 -18 15 -18 17 0 8 8 3 21 -13z m69 2 c-7
-8 -17 -15 -23 -15 -6 0 -2 7 9 15 25 19 30 19 14 0z m171 -2 c13 -16 12 -17
-3 -4 -10 7 -18 15 -18 17 0 8 8 3 21 -13z m355 -3 c0 -12 -4 -16 -9 -11 -5 5
-6 14 -3 20 10 15 12 14 12 -9z m-697 7 c-2 -1 -13 -9 -24 -17 -19 -14 -19
-14 -6 3 7 9 18 17 24 17 6 0 8 -1 6 -3z m71 -1 c0 -2 -8 -10 -17 -17 -16 -13
-17 -12 -4 4 13 16 21 21 21 13z m240 0 c0 -2 -8 -10 -17 -17 -16 -13 -17 -12
-4 4 13 16 21 21 21 13z m91 -23 c13 -16 12 -17 -3 -4 -10 7 -18 15 -18 17 0
8 8 3 21 -13z m79 13 c0 -2 -8 -10 -17 -17 -16 -13 -17 -12 -4 4 13 16 21 21
21 13z m-470 -10 c0 -2 -8 -10 -17 -17 -16 -13 -17 -12 -4 4 13 16 21 21 21
13z m230 -11 c-10 -12 -10 -18 1 -32 12 -17 12 -17 -6 -1 -15 14 -16 20 -5 32
7 9 15 16 17 16 3 0 0 -7 -7 -15z m-100 -16 c0 -5 -4 -9 -8 -9 -5 0 -9 7 -9
15 0 8 4 12 9 9 4 -3 8 -9 8 -15z m-166 -5 c3 -8 2 -12 -4 -9 -6 3 -10 10 -10
16 0 14 7 11 14 -7z m600 0 c3 -8 2 -12 -4 -9 -6 3 -10 10 -10 16 0 14 7 11
14 -7z m-496 -23 c-7 -9 -13 -18 -15 -20 -1 -2 -1 5 0 16 0 11 7 20 14 20 10
0 10 -4 1 -16z m92 15 c0 -2 -8 -10 -17 -17 -16 -13 -17 -12 -4 4 13 16 21 21
21 13z m200 -1 c0 -1 -12 -12 -27 -26 -20 -17 -23 -18 -10 -3 9 11 15 23 12
26 -3 2 2 5 10 5 8 0 15 -1 15 -2z m-342 -28 c17 -17 18 -24 8 -24 -8 0 -14 5
-13 11 1 6 -3 10 -9 9 -6 -1 -11 5 -11 13 0 18 0 18 25 -9z m273 6 c13 -16 12
-17 -3 -4 -10 7 -18 15 -18 17 0 8 8 3 21 -13z m147 8 c16 12 16 12 0 -6 -18
-19 -18 -19 -35 0 -17 18 -17 18 0 6 14 -11 20 -11 35 0z m-338 -5 c0 -2 -8
-10 -17 -17 -16 -13 -17 -12 -4 4 13 16 21 21 21 13z m280 0 c0 -2 -8 -10 -17
-17 -16 -13 -17 -12 -4 4 13 16 21 21 21 13z m76 -24 c-17 -16 -18 -16 -5 5 7
12 15 20 18 17 3 -2 -3 -12 -13 -22z m111 11 c0 -10 -4 -10 -16 -1 -9 7 -18
13 -20 15 -2 1 5 1 16 0 11 0 20 -7 20 -14z m-337 3 c0 -2 -8 -10 -17 -17 -16
-13 -17 -12 -4 4 13 16 21 21 21 13z m-89 -23 c13 -16 12 -17 -3 -4 -17 13
-22 21 -14 21 2 0 10 -8 17 -17z m539 12 c0 -2 -6 -8 -13 -14 -10 -8 -14 -7
-14 2 0 8 6 14 14 14 7 0 13 -1 13 -2z m-433 -20 c0 -8 -4 -15 -9 -15 -10 0
-11 14 -1 23 9 10 10 9 10 -8z m-166 -18 c-10 -9 -11 -8 -5 6 3 10 9 15 12 12
3 -3 0 -11 -7 -18z m40 6 c13 -16 12 -17 -3 -4 -10 7 -18 15 -18 17 0 8 8 3
21 -13z m65 -19 c1 -9 -1 -13 -4 -9 -4 4 -7 10 -7 13 0 4 -4 14 -9 22 -7 12
-6 13 4 3 8 -7 15 -20 16 -29z m358 28 c3 -5 -1 -9 -9 -9 -8 0 -12 4 -9 9 3 4
7 8 9 8 2 0 6 -4 9 -8z m-323 -29 c13 -16 12 -17 -3 -4 -10 7 -18 15 -18 17 0
8 8 3 21 -13z m246 -6 c1 -11 1 -18 0 -16 -2 2 -8 11 -15 20 -9 12 -9 16 1 16
7 0 14 -9 14 -20z m-117 -29 c0 -4 -5 -8 -12 -8 -6 0 -8 3 -5 7 4 3 -1 16 -10
27 -18 21 -18 21 5 2 12 -11 22 -23 22 -28z m21 25 c13 -16 12 -17 -3 -4 -10
7 -18 15 -18 17 0 8 8 3 21 -13z m-291 1 c0 -8 -19 -13 -24 -6 -3 5 1 9 9 9 8
0 15 -2 15 -3z m30 -3 c0 -5 -8 -15 -17 -22 -16 -12 -17 -12 -6 2 7 9 10 19 6
22 -3 4 -1 7 5 7 7 0 12 -4 12 -9z m200 -16 c14 -19 14 -19 -2 -6 -10 7 -18
18 -18 24 0 6 1 8 3 6 1 -2 9 -13 17 -24z m131 8 c13 -16 12 -17 -3 -4 -15 11
-21 11 -35 0 -16 -13 -17 -12 -4 4 7 9 17 17 21 17 4 0 14 -8 21 -17z m206 0
c0 -10 -4 -10 -16 -1 -9 7 -18 13 -20 15 -2 1 5 1 16 0 11 0 20 -7 20 -14z
m-417 -18 c-10 -12 -10 -18 1 -32 12 -17 12 -17 -6 -1 -15 14 -16 20 -5 32 7
9 15 16 17 16 3 0 0 -7 -7 -15z m435 -23 c-3 -3 -11 0 -18 7 -9 10 -8 11 6 5
10 -3 15 -9 12 -12z m-549 -14 c3 -4 -1 -5 -10 -4 -8 1 -18 5 -22 8 -3 4 1 5
10 4 8 -1 18 -5 22 -8z m345 -5 c13 -16 12 -17 -3 -4 -10 7 -18 15 -18 17 0 8
8 3 21 -13z m86 -6 c1 -11 1 -18 0 -16 -2 2 -8 11 -15 20 -9 12 -9 16 1 16 7
0 14 -9 14 -20z m87 15 c2 -4 -4 -8 -14 -8 -10 0 -16 4 -14 8 3 4 9 8 14 8 5
0 11 -4 14 -8z m-410 -31 c-2 -3 -12 3 -22 13 -16 17 -16 18 5 5 12 -7 20 -15
17 -18z m67 12 c13 -16 12 -17 -3 -4 -10 7 -18 15 -18 17 0 8 8 3 21 -13z m49
3 c0 -2 -8 -10 -17 -17 -16 -13 -17 -12 -4 4 13 16 21 21 21 13z m61 -13 c13
-17 13 -17 -6 -3 -11 8 -22 16 -24 17 -2 2 0 3 6 3 6 0 17 -8 24 -17z m120 0
c13 -17 13 -17 -6 -3 -11 8 -22 16 -24 17 -2 2 0 3 6 3 6 0 17 -8 24 -17z m69
3 c0 -2 -8 -10 -17 -17 -16 -13 -17 -12 -4 4 13 16 21 21 21 13z m41 -13 c13
-16 12 -17 -3 -4 -10 7 -18 15 -18 17 0 8 8 3 21 -13z m-250 -10 c13 -16 12
-17 -3 -4 -10 7 -18 15 -18 17 0 8 8 3 21 -13z m90 4 c-6 -8 -9 -17 -6 -20 3
-4 2 -5 -2 -2 -3 3 -11 0 -18 -5 -8 -7 -12 -5 -12 5 0 8 4 12 8 10 3 -3 12 2
19 10 7 8 15 15 17 15 3 0 0 -6 -6 -13z m-301 0 c0 -2 -8 -11 -18 -20 -15 -14
-19 -15 -19 -2 0 8 4 12 8 9 4 -2 10 0 14 6 6 10 15 14 15 7z m76 -12 c-1 -8
-5 -17 -8 -21 -5 -4 -4 16 1 34 3 9 9 -1 7 -13z m104 12 c0 -2 -8 -11 -18 -20
-15 -14 -19 -15 -19 -2 0 8 4 12 8 9 4 -2 10 0 14 6 6 10 15 14 15 7z m170
-12 c0 -1 -10 -10 -22 -21 -14 -12 -18 -13 -10 -3 6 9 10 18 7 21 -3 2 2 5 10
5 8 0 15 -1 15 -2z m95 -5 c3 -6 -1 -7 -9 -4 -18 7 -21 14 -7 14 6 0 13 -4 16
-10z m-348 -37 c-4 -3 -1 -13 6 -22 11 -14 10 -14 -5 -2 -21 15 -23 31 -6 31
6 0 8 -3 5 -7z m83 -2 c0 -5 -8 -15 -17 -22 -16 -12 -17 -12 -6 2 7 9 10 19 6
22 -3 4 -1 7 5 7 7 0 12 -4 12 -9z m-164 -27 c1 -9 0 -13 -4 -10 -3 4 -7 14
-8 22 -1 9 0 13 4 10 3 -4 7 -14 8 -22z m315 -1 c13 -16 12 -17 -3 -4 -17 13
-22 21 -14 21 2 0 10 -8 17 -17z m-135 -13 c0 -12 -4 -16 -9 -11 -5 5 -6 14
-3 20 10 15 12 14 12 -9z m97 7 c4 3 7 1 7 -5 0 -17 -16 -15 -31 6 -12 15 -12
16 2 5 9 -7 19 -10 22 -6z m-37 -9 c4 -7 4 -10 -1 -6 -4 4 -15 2 -24 -5 -14
-11 -14 -10 -2 6 16 20 18 21 27 5z m-156 -2 c0 -2 -8 -10 -17 -17 -16 -13
-17 -12 -4 4 13 16 21 21 21 13z m278 -25 c-7 -9 -13 -18 -15 -20 -1 -2 -1 5
0 16 0 11 7 20 14 20 10 0 10 -4 1 -16z m-277 -48 c13 -15 17 -22 8 -15 -9 6
-20 8 -25 4 -5 -4 -6 -3 -2 2 4 5 3 15 -3 23 -21 25 -3 13 22 -14z m85 15 c3
-4 -1 -5 -10 -4 -8 1 -18 5 -22 8 -3 4 1 5 10 4 8 -1 18 -5 22 -8z m-5 -41
c-6 -8 -9 -16 -6 -19 3 -3 -3 -11 -12 -19 -16 -13 -17 -12 -4 4 7 9 10 17 6
17 -4 0 -2 7 5 15 7 8 15 15 17 15 3 0 0 -6 -6 -13z m79 -1 c-7 -7 -13 -7 -20
0 -6 6 -3 10 10 10 13 0 16 -4 10 -10z m40 -1 c-5 -7 -7 -15 -3 -18 3 -4 1 -7
-5 -7 -6 0 -10 8 -9 18 0 10 7 19 14 19 9 0 10 -4 3 -12z m-203 -12 c-4 -3 -1
-13 6 -22 11 -14 10 -14 -5 -2 -21 15 -23 31 -6 31 6 0 8 -3 5 -7z m-80 -28
c0 -8 -4 -12 -9 -9 -5 3 -6 10 -3 15 9 13 12 11 12 -6z m183 1 c0 -2 -8 -10
-17 -17 -16 -13 -17 -12 -4 4 13 16 21 21 21 13z m-43 -51 c0 -8 -4 -12 -9 -9
-5 3 -6 10 -3 15 9 13 12 11 12 -6z m-46 -12 c13 -16 12 -17 -3 -4 -17 13 -22
21 -14 21 2 0 10 -8 17 -17z"/>
</g>
</svg>
